<svg width="94" height="68" viewBox="0 0 94 68" fill="none" xmlns="http://www.w3.org/2000/svg">
<path d="M41.7153 66.6888C40.189 67.2412 38.5093 67.3859 36.8888 67.1045C35.2683 66.8232 33.7797 66.1285 32.6114 65.1083L2.44749 38.7681C1.67156 38.0908 1.05605 37.2866 0.636093 36.4016C0.216148 35.5165 -7.62939e-06 34.5678 -7.62939e-06 33.6098C-7.62939e-06 32.6518 0.216148 31.7031 0.636093 30.8181C1.05605 29.933 1.67156 29.1288 2.44749 28.4515L32.6114 2.13469C33.7797 1.11507 35.268 0.420854 36.8881 0.139802C38.5082 -0.141251 40.1874 0.00348554 41.7133 0.555711C43.2392 1.10794 44.5433 2.04285 45.4608 3.24225C46.3783 4.44165 46.8679 5.85168 46.8678 7.29405V17.3692C88.6187 17.7091 94 40.625 94 60.609C94.0023 62.4134 93.2386 64.1545 91.8564 65.4958C90.4742 66.8371 88.5716 67.6834 86.5165 67.8711C84.4613 68.0587 82.3994 67.5745 80.7293 66.5119C79.0593 65.4493 77.8996 63.8838 77.4744 62.118C76.7477 60.6987 70.4936 50.105 46.8678 49.8278V59.9525C46.8676 61.3944 46.378 62.8038 45.461 64.0027C44.5439 65.2017 43.2404 66.1364 41.7153 66.6888ZM85.6478 60.609C85.6478 37.8673 77.5562 24.6604 45.919 24.6604C45.8354 24.6604 45.731 24.6371 45.6375 24.6371C43.2045 24.6371 42.4069 24.4285 41.1073 24.4285C40.2394 24.4399 39.3737 24.5096 38.5181 24.6371V7.29405L8.35416 33.6109L38.5156 59.9525V42.6095C39.5141 42.5115 40.5176 42.458 41.5224 42.4491C42.5965 42.4491 43.4542 42.5278 45.6367 42.5278H45.919C78.2094 42.5278 85.6478 59.364 85.6478 60.609Z" fill="white"/>
</svg>
