<svg width="350" height="336" viewBox="0 0 350 336" fill="none" xmlns="http://www.w3.org/2000/svg">
<path d="M116.955 232.313L68.9886 180.284L53 197.627L116.955 267L254 118.343L238.011 101L116.955 232.313Z" fill="#36CA11" fill-opacity="0.54"/>
<path d="M308 183.5C308 267.171 239.052 335 154 335C68.9481 335 0 267.171 0 183.5C0 99.8289 68.9481 32 154 32C239.052 32 308 99.8289 308 183.5ZM15.6328 183.5C15.6328 258.678 77.5819 319.621 154 319.621C230.418 319.621 292.367 258.678 292.367 183.5C292.367 108.322 230.418 47.3791 154 47.3791C77.5819 47.3791 15.6328 108.322 15.6328 183.5Z" fill="#81D16D"/>
</svg>
