<svg width="34" height="34" viewBox="0 0 34 34" fill="none" xmlns="http://www.w3.org/2000/svg">
<path fill-rule="evenodd" clip-rule="evenodd" d="M28.3333 21.9583C26.5625 21.9583 24.8625 21.675 23.2758 21.1508C23.1342 21.1083 22.9783 21.08 22.8367 21.08C22.4683 21.08 22.1142 21.2217 21.8308 21.4908L18.7142 24.6075C14.705 22.5675 11.4183 19.295 9.37833 15.2858L12.495 12.155C12.8917 11.7725 13.005 11.22 12.8492 10.7242C12.325 9.1375 12.0417 7.4375 12.0417 5.66667C12.0417 4.8875 11.4042 4.25 10.625 4.25H5.66667C4.8875 4.25 4.25 4.8875 4.25 5.66667C4.25 18.9692 15.0308 29.75 28.3333 29.75C29.1125 29.75 29.75 29.1125 29.75 28.3333V23.375C29.75 22.5958 29.1125 21.9583 28.3333 21.9583ZM18.4166 12.75H15.5832V15.5833H18.4166V12.75ZM24.0833 12.75H21.25V15.5833H24.0833V12.75ZM9.25059 7.08338H7.12559C7.25309 8.95338 7.62142 10.7525 8.20226 12.4667L9.90226 10.7525C9.56226 9.56255 9.34976 8.33005 9.25059 7.08338ZM26.9168 26.8741C25.0468 26.7466 23.2335 26.3783 21.5335 25.7975L23.2335 24.0975C24.4377 24.4375 25.6702 24.65 26.9168 24.735V26.8741ZM29.7501 12.75H26.9168V15.5833H29.7501V12.75Z" fill="#D3C95C"/>
</svg>
