<svg width="94" height="68" viewBox="0 0 94 68" fill="none" xmlns="http://www.w3.org/2000/svg">
<path d="M52.2847 66.6888C53.811 67.2412 55.4907 67.3859 57.1112 67.1045C58.7317 66.8232 60.2203 66.1285 61.3886 65.1083L91.5525 38.7681C92.3284 38.0908 92.944 37.2866 93.3639 36.4016C93.7839 35.5165 94 34.5678 94 33.6098C94 32.6518 93.7839 31.7031 93.3639 30.8181C92.944 29.933 92.3284 29.1288 91.5525 28.4515L61.3886 2.13469C60.2203 1.11507 58.732 0.420854 57.1119 0.139802C55.4918 -0.141251 53.8126 0.00348554 52.2867 0.555711C50.7608 1.10794 49.4567 2.04285 48.5392 3.24225C47.6217 4.44165 47.1321 5.85168 47.1322 7.29405V17.3692C5.38132 17.7091 5.34992e-06 40.625 5.34992e-06 60.609C-0.00233219 62.4134 0.76141 64.1545 2.14362 65.4958C3.52583 66.8371 5.42838 67.6834 7.48354 67.8711C9.53871 68.0587 11.6006 67.5745 13.2707 66.5119C14.9407 65.4493 16.1004 63.8838 16.5256 62.118C17.2523 60.6987 23.5064 50.105 47.1322 49.8278V59.9525C47.1324 61.3944 47.622 62.8038 48.539 64.0027C49.4561 65.2017 50.7596 66.1364 52.2847 66.6888ZM8.35219 60.609C8.35219 37.8673 16.4438 24.6604 48.081 24.6604C48.1646 24.6604 48.269 24.6371 48.3625 24.6371C50.7955 24.6371 51.5931 24.4285 52.8927 24.4285C53.7606 24.4399 54.6263 24.5096 55.4819 24.6371V7.29405L85.6458 33.6109L55.4844 59.9525V42.6095C54.4859 42.5115 53.4824 42.458 52.4776 42.4491C51.4035 42.4491 50.5458 42.5278 48.3633 42.5278H48.081C15.7906 42.5278 8.35219 59.364 8.35219 60.609Z" fill="white"/>
</svg>
